<svg width="1200" height="140" viewBox="0 0 1200 140" fill="none" xmlns="http://www.w3.org/2000/svg">
  <path d="M22 68C88 34 150 32 214 50C280 70 334 74 404 46C472 20 536 20 606 44C672 68 732 74 796 58C864 40 922 30 984 46C1052 64 1112 64 1188 40" stroke="#F3FEFF" stroke-opacity="0.76" stroke-width="18" stroke-linecap="round"/>
  <path d="M14 92C74 62 140 62 202 74C268 88 332 92 406 70C474 50 548 52 618 74C686 96 752 96 824 74C896 52 962 46 1028 58C1098 70 1154 70 1192 58" stroke="#E8FAFF" stroke-opacity="0.46" stroke-width="10" stroke-linecap="round"/>
</svg>
